HIERARCHY
ROOT Hips
{
	OFFSET 0.000000 89.005402 0.000000
	CHANNELS 6 Xposition Yposition Zposition Xrotation Yrotation Zrotation
	JOINT Spine
	{
		OFFSET 0.116900 10.681000 0.373400
		CHANNELS 3 Xrotation Yrotation Zrotation
		JOINT Spine1
		{
			OFFSET 0.000000 13.840401 0.053500
			CHANNELS 3 Xrotation Yrotation Zrotation
			JOINT Spine2
			{
				OFFSET 0.000000 14.712700 -0.366200
				CHANNELS 3 Xrotation Yrotation Zrotation
				JOINT Neck
				{
					OFFSET 0.000000 35.415497 -3.314200
					CHANNELS 3 Xrotation Yrotation Zrotation
					JOINT Head
					{
						OFFSET 0.000000 16.899200 1.218300
						CHANNELS 3 Xrotation Yrotation Zrotation
						JOINT HeadTop_End
						{
							OFFSET 0.000000 22.206207 2.192500
							CHANNELS 3 Xrotation Yrotation Zrotation
							End Site
							{
								OFFSET 0.000000 22.314178 0.000000
							}
						}
					}
				}
				JOINT LeftShoulder
				{
					OFFSET 12.896400 26.716293 -4.548400
					CHANNELS 3 Xrotation Yrotation Zrotation
					JOINT LeftArm
					{
						OFFSET 19.027000 -4.857010 -1.718400
						CHANNELS 3 Xrotation Yrotation Zrotation
						JOINT LeftForeArm
						{
							OFFSET 24.179897 0.000000 0.000000
							CHANNELS 3 Xrotation Yrotation Zrotation
							JOINT LeftHand
							{
								OFFSET 27.156403 0.000000 0.000000
								CHANNELS 3 Xrotation Yrotation Zrotation
								JOINT LeftHandIndex1
								{
									OFFSET 16.441200 0.000000 0.000000
									CHANNELS 3 Xrotation Yrotation Zrotation
									JOINT LeftHandIndex2
									{
										OFFSET 4.821899 0.000000 0.000000
										CHANNELS 3 Xrotation Yrotation Zrotation
										JOINT LeftHandIndex3
										{
											OFFSET 6.386497 0.000000 0.000000
											CHANNELS 3 Xrotation Yrotation Zrotation
											JOINT LeftHandIndex4
											{
												OFFSET 5.188988 0.000000 0.000000
												CHANNELS 3 Xrotation Yrotation Zrotation
												End Site
												{
													OFFSET -0.178703 5.185913 0.000177
												}
											}
										}
									}
								}
								JOINT LeftHandThumb1
								{
									OFFSET 6.534897 -5.032593 5.900300
									CHANNELS 3 Xrotation Yrotation Zrotation
									JOINT LeftHandThumb2
									{
										OFFSET 3.818176 -2.204422 2.204423
										CHANNELS 3 Xrotation Yrotation Zrotation
										JOINT LeftHandThumb3
										{
											OFFSET 3.252098 -1.877594 1.877601
											CHANNELS 3 Xrotation Yrotation Zrotation
											JOINT LeftHandThumb4
											{
												OFFSET 5.251778 -3.032120 3.032117
												CHANNELS 3 Xrotation Yrotation Zrotation
												End Site
												{
													OFFSET 0.000023 6.780014 0.000000
												}
											}
										}
									}
								}
							}
						}
					}
				}
				JOINT RightShoulder
				{
					OFFSET -12.896300 26.716293 -4.548400
					CHANNELS 3 Xrotation Yrotation Zrotation
					JOINT RightArm
					{
						OFFSET -19.027000 -4.857010 -1.718400
						CHANNELS 3 Xrotation Yrotation Zrotation
						JOINT RightForeArm
						{
							OFFSET -24.179897 0.000000 0.000000
							CHANNELS 3 Xrotation Yrotation Zrotation
							JOINT RightHand
							{
								OFFSET -27.156403 0.000000 0.000000
								CHANNELS 3 Xrotation Yrotation Zrotation
								JOINT RightHandThumb1
								{
									OFFSET -6.591202 -4.852203 5.988100
									CHANNELS 3 Xrotation Yrotation Zrotation
									JOINT RightHandThumb2
									{
										OFFSET -3.818176 -2.204422 2.204423
										CHANNELS 3 Xrotation Yrotation Zrotation
										JOINT RightHandThumb3
										{
											OFFSET -3.252098 -1.877594 1.877601
											CHANNELS 3 Xrotation Yrotation Zrotation
											JOINT RightHandThumb4
											{
												OFFSET -5.251778 -3.032120 3.032117
												CHANNELS 3 Xrotation Yrotation Zrotation
												End Site
												{
													OFFSET -0.000023 6.780014 0.000000
												}
											}
										}
									}
								}
								JOINT RightHandIndex1
								{
									OFFSET -16.029404 0.000000 0.000000
									CHANNELS 3 Xrotation Yrotation Zrotation
									JOINT RightHandIndex2
									{
										OFFSET -5.213303 0.000000 0.000000
										CHANNELS 3 Xrotation Yrotation Zrotation
										JOINT RightHandIndex3
										{
											OFFSET -6.386528 0.000000 0.000000
											CHANNELS 3 Xrotation Yrotation Zrotation
											JOINT RightHandIndex4
											{
												OFFSET -5.189026 0.000000 0.000000
												CHANNELS 3 Xrotation Yrotation Zrotation
												End Site
												{
													OFFSET 0.236702 5.183624 0.001972
												}
											}
										}
									}
								}
							}
						}
					}
				}
			}
		}
	}
	JOINT LeftUpLeg
	{
		OFFSET 14.073000 -7.904099 -1.463000
		CHANNELS 3 Xrotation Yrotation Zrotation
		JOINT LeftLeg
		{
			OFFSET -0.109806 -34.073280 4.093200
			CHANNELS 3 Xrotation Yrotation Zrotation
			JOINT LeftFoot
			{
				OFFSET 0.109806 -29.899420 -6.319000
				CHANNELS 3 Xrotation Yrotation Zrotation
				JOINT LeftToeBase
				{
					OFFSET 1.551100 -14.988700 20.535801
					CHANNELS 3 Xrotation Yrotation Zrotation
					JOINT LeftToe_End
					{
						OFFSET 0.221200 0.570800 13.248301
						CHANNELS 3 Xrotation Yrotation Zrotation
						End Site
						{
							OFFSET 0.000000 13.262435 0.000000
						}
					}
				}
			}
		}
	}
	JOINT RightUpLeg
	{
		OFFSET -13.839300 -7.904099 -1.463000
		CHANNELS 3 Xrotation Yrotation Zrotation
		JOINT RightLeg
		{
			OFFSET 0.109694 -34.073219 4.093300
			CHANNELS 3 Xrotation Yrotation Zrotation
			JOINT RightFoot
			{
				OFFSET -0.109694 -29.899384 -6.319200
				CHANNELS 3 Xrotation Yrotation Zrotation
				JOINT RightToeBase
				{
					OFFSET -1.551100 -14.988700 20.535801
					CHANNELS 3 Xrotation Yrotation Zrotation
					JOINT RightToe_End
					{
						OFFSET -0.221200 0.570900 13.248299
						CHANNELS 3 Xrotation Yrotation Zrotation
						End Site
						{
							OFFSET 0.000000 13.262440 0.000000
						}
					}
				}
			}
		}
	}
}
MOTION
Frames: 4
Frame Time: 0.033333
0.636709 83.168877 1.082632 0.398729 -2.819942 -5.246198 7.180964 2.051788 5.187655 4.128458 0.875899 1.350480 4.138784 0.844853 1.340588 2.289887 0.193456 0.568110 10.461308 1.298683 2.601192 -0.000001 -0.000000 -0.000000 -2.883107 -13.796283 -10.992516 -8.085000 -6.848991 -69.497052 -0.000004 -28.157943 0.000014 -4.320051 8.921918 4.917795 -3.612183 0.151870 -40.466282 1.758337 4.185012 -45.564547 0.068741 0.895772 -8.776224 -0.000001 -0.000001 -0.000000 -8.839242 -3.040880 -0.886308 12.805482 25.489026 7.046458 -1.034640 9.840289 13.474384 -0.000001 -0.000000 0.000000 -3.335595 18.547187 9.351070 4.969057 -17.698671 68.125277 0.000004 49.166598 -0.000019 25.473481 1.925086 6.029348 -0.505664 1.811507 5.499479 13.392838 -27.044141 -8.322206 -3.092849 -2.713815 -10.913497 -0.000004 -0.000002 0.000002 -2.777082 -0.464818 39.281354 1.453781 -3.382237 46.509142 0.444157 -1.986669 25.202064 0.000000 -0.000002 -0.000000 -25.904491 3.560732 3.710563 66.635312 5.923991 2.363491 1.785607 0.196475 -0.955759 -44.318970 7.212770 -1.604936 -0.000000 -0.000000 0.000000 -22.063615 -8.690506 9.491708 24.213903 -3.059814 0.411163 -3.789655 1.110319 -7.041269 -0.417569 -0.000002 -0.000001 -0.000000 -0.000000 -0.000000 
0.552567 83.652397 4.077130 0.016090 -2.502962 -4.652575 7.375090 2.425109 4.797695 4.176332 1.107563 1.217588 4.190173 1.081150 1.194358 2.554330 0.334926 0.683041 9.630583 2.069556 2.548227 -0.000003 -0.000000 0.000000 -2.880667 -13.800086 -10.918357 -6.993016 -7.264927 -70.018591 -0.000007 -28.439007 -0.000009 -3.166772 7.916135 5.399931 -3.398936 0.401988 -40.433654 1.746091 4.173002 -45.396453 0.068742 0.895770 -8.776226 -0.000001 -0.000000 -0.000000 -8.836602 -2.647798 -0.665218 13.119427 25.425558 7.067671 -1.063082 9.660047 13.527888 -0.000000 0.000000 0.000000 -3.383100 18.840686 9.416509 4.537046 -18.723485 68.129306 0.000005 49.784344 -0.000017 25.505970 1.879289 5.725623 -0.933460 1.801863 5.032901 13.349393 -27.415847 -8.117188 -2.984172 -3.519531 -10.968410 -0.000003 -0.000000 -0.000001 -2.743209 -0.453052 38.965393 1.572335 -3.490668 48.486628 0.488183 -2.077605 26.443779 0.000001 -0.000000 -0.000000 -28.791624 3.093204 3.072975 62.828923 6.116744 1.934462 -2.418139 0.204852 -0.568769 -32.410040 2.828951 -1.239615 0.000000 -0.000001 -0.000000 -18.979813 -8.780322 8.925736 24.572792 -2.564228 0.054903 -6.545040 1.164052 -6.452644 -0.432369 0.000001 -0.000001 -0.000000 0.000000 0.000000 
0.488638 84.161629 7.053568 -0.197926 -2.165952 -4.061318 7.476877 2.782244 4.375294 4.195311 1.341018 1.068056 4.211298 1.318946 1.031622 2.503171 0.594594 1.120887 8.596423 3.835947 2.308129 0.000001 0.000000 -0.000000 -2.880997 -13.565198 -10.898990 -5.854340 -7.945629 -70.304401 -0.000003 -28.901645 -0.000011 -2.504139 7.189187 5.767000 -3.169538 0.671367 -40.399551 1.733875 4.160946 -45.228273 0.068737 0.895773 -8.776225 -0.000002 0.000001 -0.000000 -8.845861 -2.309519 -0.480202 13.402267 25.370652 7.083374 -1.079244 9.488812 13.565839 -0.000001 -0.000000 -0.000000 -3.346454 18.838534 9.411341 4.161162 -19.212190 68.169386 -0.000003 50.079821 0.000017 25.339344 2.080577 5.378572 -1.239782 1.772174 4.687141 13.318553 -27.835336 -7.921532 -2.884208 -4.262827 -10.975848 -0.000003 -0.000002 -0.000002 -2.712690 -0.435598 38.638196 1.701291 -3.600486 50.571762 0.538226 -2.175260 27.792615 -0.000001 -0.000004 0.000001 -31.003673 2.889575 2.341979 55.166557 5.340662 1.555711 -2.635212 0.018951 0.303047 -22.153415 1.914085 -0.360770 0.000000 -0.000001 0.000000 -15.681093 -8.874605 8.334680 24.035325 -2.101470 -0.182304 -8.817213 1.182576 -5.924367 -0.429606 -0.000005 0.000001 0.000000 -0.000000 -0.000000 
0.460425 84.666977 9.929848 -0.155547 -1.781461 -3.668733 7.383993 3.100838 4.142061 4.133640 1.549935 0.973555 4.151270 1.530056 0.926245 2.521041 1.011386 1.588209 7.042862 6.637274 2.025172 0.000001 -0.000001 -0.000000 -2.866530 -13.486705 -11.053784 -4.616752 -8.509663 -70.265790 0.000002 -29.653085 0.000008 -2.132596 6.667898 5.985063 -2.926934 0.954820 -40.355199 1.721681 4.148856 -45.060045 0.068737 0.895771 -8.776228 -0.000000 -0.000001 -0.000001 -8.865250 -2.021489 -0.327911 13.661198 25.323708 7.084211 -1.091263 9.326911 13.590678 0.000002 -0.000000 0.000001 -3.389174 18.908463 9.349558 4.137555 -19.744906 68.289310 -0.000010 50.343914 0.000022 25.282941 2.401137 5.230552 -1.658940 1.679057 4.188665 13.316968 -28.223807 -7.676094 -2.789776 -5.041434 -11.062485 0.000001 0.000000 -0.000001 -2.682786 -0.417274 38.308718 1.825692 -3.699069 52.525821 0.585382 -2.262386 29.010347 0.000002 0.000003 -0.000001 -32.817488 3.002361 1.785372 46.433921 3.789684 1.608017 -3.412558 0.037149 0.027072 -4.991185 2.338064 0.734524 -0.000000 0.000001 -0.000000 -12.261588 -9.055612 7.957115 22.474104 -1.657465 -0.339647 -10.442977 1.154310 -5.449234 -0.264954 -0.000003 0.000002 -0.000000 -0.000000 0.000000 
